<?xml version="1.0" standalone="no"?>
<!DOCTYPE svg PUBLIC "-//W3C//DTD SVG 20010904//EN"
 "http://www.w3.org/TR/2001/REC-SVG-20010904/DTD/svg10.dtd">
<svg version="1.0" xmlns="http://www.w3.org/2000/svg"
 width="500.000000pt" height="500.000000pt" viewBox="0 0 500.000000 500.000000"
 preserveAspectRatio="xMidYMid meet">

<g transform="translate(0.000000,500.000000) scale(0.100000,-0.100000)"
fill="#000000" stroke="none">
<path d="M2387 4909 c-9 -6 -15 -15 -11 -20 3 -5 2 -9 -3 -8 -4 1 -24 1 -43 0
-29 -1 -32 -3 -17 -12 26 -15 21 -28 -19 -45 -27 -11 -33 -18 -25 -27 7 -9 4
-21 -9 -42 -30 -45 -26 -74 10 -86 19 -7 30 -18 30 -30 0 -10 5 -29 11 -43 10
-21 8 -44 -11 -121 -21 -88 -22 -103 -12 -173 7 -42 12 -114 12 -159 0 -46 5
-114 12 -151 11 -64 10 -73 -11 -123 -13 -30 -39 -82 -59 -116 -29 -49 -43
-63 -62 -64 -21 -1 -21 -2 -5 -6 17 -3 20 -10 17 -38 -2 -19 0 -35 6 -35 5 0
7 11 5 24 -5 24 45 127 67 141 5 3 21 -2 35 -11 24 -15 26 -21 19 -58 -3 -23
-13 -54 -21 -70 -8 -15 -13 -37 -10 -47 6 -24 -9 -25 -22 -1 -6 9 -10 13 -11
7 0 -20 18 -38 33 -32 9 3 13 14 10 29 -2 13 3 32 11 43 14 19 15 18 11 -15
-2 -19 -6 -111 -9 -204 -5 -158 -4 -172 18 -236 32 -91 89 -413 82 -459 -6
-34 -5 -35 6 -11 11 20 21 25 54 26 37 0 42 -3 52 -30 10 -26 9 -34 -14 -63
-35 -47 -53 -54 -92 -37 -28 12 -32 16 -22 33 5 11 10 25 10 32 0 7 -11 -9
-25 -37 -13 -27 -54 -80 -91 -119 -59 -61 -254 -313 -324 -417 -13 -20 -33
-39 -42 -42 -10 -2 -18 -13 -18 -24 0 -11 -45 -95 -100 -187 -55 -93 -100
-176 -100 -186 0 -21 19 -29 41 -18 22 11 43 -14 36 -43 -7 -25 8 -58 27 -58
7 0 50 53 95 118 45 64 91 122 104 127 14 6 23 21 25 39 2 16 54 103 119 199
63 93 149 229 190 301 55 97 94 151 150 208 80 83 79 78 46 158 -10 25 -15 92
-18 238 -3 111 -2 202 0 202 18 0 189 -117 217 -148 59 -66 114 -154 143 -232
15 -41 59 -147 96 -235 78 -183 104 -268 155 -503 20 -92 38 -173 40 -179 6
-22 34 -15 34 8 0 17 3 19 14 10 28 -23 23 14 -26 204 -67 263 -90 334 -169
538 -70 178 -70 178 -76 300 -6 135 -12 147 -70 147 -29 0 -48 14 -146 113
-62 61 -132 123 -155 137 -24 14 -53 32 -64 41 l-21 16 42 134 c58 180 63 189
109 191 36 1 36 1 5 5 l-32 4 20 42 c33 73 26 133 -27 234 -41 81 -45 94 -45
158 1 39 6 106 13 150 20 132 17 192 -14 257 -15 32 -39 69 -53 82 -32 30 -27
58 14 82 64 38 83 139 36 186 -40 41 -137 61 -178 37z m120 -14 c59 -25 73
-43 73 -92 0 -25 -3 -43 -7 -41 -106 53 -140 68 -150 68 -13 0 -35 58 -27 71
8 14 71 10 111 -6z m-149 -91 c-5 -28 -28 -29 -28 -1 0 13 3 27 7 31 10 10 25
-10 21 -30z m-59 -58 c10 -11 8 -15 -6 -19 -21 -6 49 2 86 9 23 5 24 4 9 -18
-8 -12 -27 -31 -41 -42 -26 -19 -28 -19 -62 -3 -37 18 -43 35 -23 67 15 24 22
25 37 6z m224 -178 c31 -29 67 -116 67 -161 0 -22 -7 -40 -22 -53 -19 -17 -21
-17 -15 -1 4 9 2 17 -3 17 -6 0 -10 -3 -10 -7 -4 -99 -32 -311 -46 -352 -19
-52 -141 -242 -159 -248 -6 -1 -20 5 -32 15 l-22 17 59 144 60 143 -6 107 c-3
58 -12 136 -21 173 -18 81 -6 151 34 199 31 37 80 40 116 7z m77 -603 c21 -39
41 -81 45 -94 l7 -24 -33 23 c-22 17 -51 25 -90 28 l-57 4 15 52 c14 50 46 90
66 83 5 -1 27 -34 47 -72z m-17 -86 c78 -40 85 -84 28 -191 -41 -77 -118 -303
-128 -376 -3 -26 1 -71 11 -115 10 -40 16 -91 14 -112 -2 -33 -8 -41 -32 -50
-26 -9 -31 -6 -55 22 -15 18 -42 63 -61 100 l-35 68 3 160 4 160 43 100 c43
97 45 100 82 108 61 12 93 28 93 47 0 23 -20 38 -58 46 -18 4 -32 8 -32 9 0 2
3 10 6 19 7 19 83 22 117 5z m133 -720 c43 -42 81 -84 85 -91 4 -8 -3 -27 -21
-48 l-28 -34 -70 68 c-62 59 -75 79 -102 148 -16 44 -30 84 -30 89 0 18 87
-51 166 -132z m134 -178 c0 -32 -6 -65 -13 -75 -11 -15 -16 -13 -45 30 l-33
47 32 33 c43 45 59 36 59 -35z m-823 -1176 c-4 -8 -11 -15 -17 -15 -6 0 -6 7
2 20 14 22 24 19 15 -5z"/>
<path d="M2457 4374 c-26 -19 -50 -41 -53 -48 -7 -19 33 -120 57 -141 19 -18
21 -18 37 -1 13 13 18 39 20 121 2 58 0 105 -5 105 -4 0 -30 -16 -56 -36z"/>
<path d="M1398 4033 c23 -2 61 -2 85 0 23 2 4 4 -43 4 -47 0 -66 -2 -42 -4z"/>
<path d="M1283 4023 c9 -2 25 -2 35 0 9 3 1 5 -18 5 -19 0 -27 -2 -17 -5z"/>
<path d="M1700 4001 c41 -11 77 -18 78 -16 6 5 -67 24 -113 30 -22 3 -6 -3 35
-14z"/>
<path d="M4225 3981 c-3 -5 -2 -12 3 -15 5 -3 9 1 9 9 0 17 -3 19 -12 6z"/>
<path d="M1833 3963 c9 -2 23 -2 30 0 6 3 -1 5 -18 5 -16 0 -22 -2 -12 -5z"/>
<path d="M1913 3953 c20 -2 54 -2 75 0 20 2 3 4 -38 4 -41 0 -58 -2 -37 -4z"/>
<path d="M4300 3870 c-11 -11 -24 -20 -30 -20 -5 0 -14 -10 -21 -21 -9 -17 -8
-20 3 -14 7 5 0 -7 -17 -26 -16 -19 -33 -38 -38 -44 -5 -6 -11 -4 -17 5 -6 9
-10 10 -10 3 0 -6 5 -15 10 -18 8 -5 7 -11 -1 -21 -6 -7 -16 -11 -22 -7 -6 3
-7 1 -3 -6 6 -9 -25 -74 -43 -91 -10 -9 -16 -43 -16 -95 0 -56 5 -74 23 -93
19 -21 15 -37 -5 -21 -16 11 -16 11 -5 -1 7 -8 17 -16 23 -16 22 -3 23 -5 9
-15 -13 -9 -13 -10 0 -8 29 3 51 -1 47 -8 -3 -5 56 -8 131 -8 156 0 220 -15
267 -65 25 -26 27 -34 19 -57 -5 -15 -25 -36 -43 -47 -22 -12 -31 -15 -26 -6
6 10 4 12 -8 7 -12 -4 -28 7 -54 38 -39 47 -75 65 -130 65 -46 0 -77 -23 -98
-73 -9 -23 -21 -50 -26 -59 -5 -11 -5 -20 2 -24 6 -3 8 -15 6 -26 -3 -11 -3
-17 0 -14 4 3 16 -3 28 -14 28 -27 54 -27 155 -2 46 12 88 18 93 13 10 -10 -2
-43 -14 -35 -5 3 -6 -1 -3 -9 7 -19 -52 -55 -90 -55 -16 0 -45 7 -63 15 -40
16 -53 11 -53 -21 0 -30 15 -42 63 -51 38 -7 87 -39 87 -56 0 -6 -6 -7 -12 -3
-10 6 -10 5 -1 -7 31 -38 -52 -53 -127 -23 -30 12 -55 15 -93 10 -29 -4 -60
-8 -69 -9 -9 -1 -14 -5 -11 -10 3 -4 -3 -14 -13 -22 -17 -12 -17 -14 7 -46 59
-77 61 -87 32 -178 -21 -67 -31 -85 -54 -97 -17 -8 -29 -23 -29 -33 0 -26 74
-117 110 -136 16 -8 91 -24 167 -35 151 -22 195 -34 218 -57 18 -17 20 -107 5
-203 -13 -77 -63 -158 -122 -197 -43 -29 -84 -104 -94 -173 -3 -25 -19 -84
-35 -132 -16 -47 -29 -97 -29 -109 0 -21 5 -18 51 26 110 107 238 284 309 425
103 204 147 423 129 642 -41 500 -128 868 -269 1137 -51 96 -157 251 -172 251
-4 0 -17 -9 -28 -20z"/>
<path d="M3338 3843 c23 -2 61 -2 85 0 23 2 4 4 -43 4 -47 0 -66 -2 -42 -4z"/>
<path d="M3177 3823 c-32 -9 -56 -17 -54 -19 2 -2 40 4 83 15 43 11 68 19 54
19 -14 0 -51 -7 -83 -15z"/>
<path d="M3530 3825 c36 -8 78 -19 94 -25 16 -6 31 -8 34 -6 6 7 -98 36 -148
41 -35 4 -31 2 20 -10z"/>
<path d="M2960 3755 c-69 -24 -120 -44 -115 -44 6 -1 69 19 140 43 72 25 123
44 115 44 -8 0 -71 -19 -140 -43z"/>
<path d="M3745 3744 c36 -28 61 -36 30 -10 -16 14 -34 26 -40 26 -5 -1 -1 -8
10 -16z"/>
<path d="M1698 3713 c29 -2 74 -2 100 0 26 2 2 3 -53 3 -55 0 -76 -1 -47 -3z"/>
<path d="M1893 3703 c20 -2 54 -2 75 0 20 2 3 4 -38 4 -41 0 -58 -2 -37 -4z"/>
<path d="M2796 3701 c-4 -5 3 -7 14 -4 23 6 26 13 6 13 -8 0 -17 -4 -20 -9z"/>
<path d="M4120 3705 c0 -5 5 -17 10 -25 5 -8 10 -10 10 -5 0 6 -5 17 -10 25
-5 8 -10 11 -10 5z"/>
<path d="M2037 3693 c18 -2 50 -2 70 0 21 2 7 4 -32 4 -38 0 -55 -2 -38 -4z"/>
<path d="M2242 3580 c0 -14 2 -19 5 -12 2 6 2 18 0 25 -3 6 -5 1 -5 -13z"/>
<path d="M2190 3581 c0 -10 30 -24 37 -17 3 2 -5 9 -16 16 -12 6 -21 7 -21 1z"/>
<path d="M883 3355 c0 -8 4 -12 9 -9 5 3 6 10 3 15 -9 13 -12 11 -12 -6z"/>
<path d="M686 3218 c3 -5 10 -6 15 -3 13 9 11 12 -6 12 -8 0 -12 -4 -9 -9z"/>
<path d="M1250 3175 c7 -9 15 -13 17 -11 7 7 -7 26 -19 26 -6 0 -6 -6 2 -15z"/>
<path d="M1887 3082 c-39 -42 1 -114 53 -97 22 7 57 52 47 61 -3 3 -8 -4 -12
-15 -15 -48 -80 -50 -91 -4 -9 33 6 57 38 61 25 3 28 -2 29 -53 0 -16 2 -17 9
-5 5 8 5 21 -1 32 -6 12 -6 18 1 18 5 0 10 -5 10 -12 0 -6 3 -8 6 -5 4 4 1 13
-6 22 -17 21 -63 19 -83 -3z"/>
<path d="M576 3055 c-11 -8 -15 -15 -9 -15 6 0 16 7 23 15 16 19 11 19 -14 0z"/>
<path d="M595 3040 c-10 -11 -16 -20 -13 -20 3 0 15 9 28 20 13 11 19 20 13
20 -5 0 -18 -9 -28 -20z"/>
<path d="M4395 3041 c-3 -5 -2 -12 3 -15 5 -3 9 1 9 9 0 17 -3 19 -12 6z"/>
<path d="M610 3020 c-8 -5 -29 -10 -47 -10 -25 0 -39 -9 -68 -42 -87 -101
-251 -378 -229 -385 5 -2 35 -19 67 -40 43 -27 70 -37 110 -40 75 -5 97 -11
97 -28 0 -8 4 -14 9 -13 13 4 72 -73 64 -85 -3 -5 -1 -7 4 -4 16 10 24 -18 10
-33 -9 -10 -9 -11 1 -6 6 4 12 5 12 2 0 -3 -10 -10 -21 -17 -12 -6 -19 -7 -16
-2 3 5 -2 9 -12 9 -10 0 -18 -6 -17 -13 1 -6 -3 -12 -7 -12 -4 0 -24 -14 -43
-30 -19 -17 -41 -31 -48 -31 -14 0 -67 39 -54 40 3 0 -8 28 -26 63 -30 57 -35
62 -62 59 -16 -2 -38 -12 -50 -23 -11 -11 -24 -16 -29 -12 -4 5 -6 4 -3 -2 3
-5 2 -32 -2 -60 -7 -40 -5 -53 7 -65 9 -8 13 -9 9 -2 -11 19 2 14 27 -9 12
-12 16 -18 8 -14 -10 5 -12 4 -7 -4 4 -6 12 -9 17 -6 5 3 28 -5 52 -19 38 -23
56 -26 131 -26 61 0 85 -3 80 -11 -4 -7 0 -9 14 -5 25 8 56 -6 96 -45 26 -25
29 -58 4 -43 -7 4 -8 2 -4 -5 4 -6 12 -8 18 -5 8 5 9 1 5 -10 -4 -10 -7 -20
-7 -22 0 -2 -7 -4 -15 -4 -8 0 -15 -5 -15 -11 0 -5 -4 -7 -10 -4 -5 3 -10 1
-10 -4 0 -6 -10 -11 -22 -11 -21 0 -21 0 -2 16 10 9 2 6 -18 -6 -81 -46 -121
-44 -188 11 -14 11 -19 17 -11 13 9 -5 12 -3 7 5 -4 6 -11 9 -16 6 -11 -7
-166 94 -163 106 2 4 -4 6 -12 3 -8 -4 -26 1 -40 10 -46 30 -48 25 -42 -106 8
-157 13 -177 46 -191 14 -6 35 -18 45 -26 11 -9 16 -10 12 -3 -10 17 -8 16
149 -23 77 -19 142 -35 145 -35 3 0 -2 -5 -10 -10 -11 -8 -8 -9 12 -4 17 4 35
0 48 -9 20 -14 20 -15 -12 -21 -42 -8 -180 13 -171 27 3 5 1 7 -4 4 -6 -4 -40
2 -75 13 -34 10 -82 22 -106 26 l-43 7 27 -74 c34 -95 54 -135 121 -239 57
-88 183 -250 195 -250 3 0 9 28 13 63 4 34 14 76 23 92 9 17 28 84 43 150 15
66 31 119 37 118 14 -3 31 49 38 116 6 54 10 60 89 141 45 47 86 94 89 105 4
11 12 78 17 150 11 162 27 273 45 302 21 33 84 62 158 72 82 12 101 23 126 71
24 47 25 71 6 170 -8 41 -12 87 -9 103 3 15 26 51 52 80 25 28 38 46 29 39 -9
-8 -23 -10 -29 -6 -8 4 -9 3 -5 -4 10 -16 -16 -15 -34 1 -12 10 -12 9 -1 -5
12 -16 11 -18 -13 -18 -54 0 -91 -24 -106 -69 -9 -29 -16 -38 -22 -29 -5 8 -6
3 -3 -13 4 -17 0 -33 -14 -50 l-21 -24 -33 39 c-42 47 -107 65 -126 34 -10
-16 -6 -25 25 -63 36 -43 123 -92 153 -86 8 1 10 -2 5 -10 -4 -8 -3 -10 4 -5
7 4 20 1 29 -6 21 -15 32 -54 12 -42 -8 5 -10 3 -4 -6 5 -8 1 -18 -10 -27 -11
-7 -15 -13 -11 -13 5 0 3 -7 -4 -15 -13 -15 -35 -21 -26 -7 2 4 -8 8 -23 7
-15 0 -28 -5 -28 -12 0 -8 6 -9 18 -2 12 6 20 5 25 -2 7 -12 -15 -31 -28 -23
-4 3 -8 1 -8 -3 0 -11 -37 -15 -79 -7 -26 4 -31 8 -20 15 10 6 7 9 -13 9 -16
0 -28 4 -28 10 0 5 8 7 18 4 14 -5 14 -4 2 4 -9 7 -19 7 -25 2 -8 -6 -20 1
-36 23 -13 17 -24 35 -24 40 0 4 -4 7 -8 6 -4 0 -23 13 -41 29 -18 16 -51 32
-72 35 -66 11 -69 17 -56 87 6 33 17 74 25 89 12 23 12 35 2 64 -7 20 -10 39
-6 42 3 4 2 6 -4 5 -29 -6 -38 1 -19 15 21 16 17 20 -6 5z"/>
<path d="M1790 2910 c0 -15 5 -20 18 -18 9 2 17 10 17 18 0 8 -8 16 -17 18
-13 2 -18 -3 -18 -18z"/>
<path d="M4043 2916 c1 -6 -4 -10 -11 -8 -8 1 -11 -2 -7 -8 5 -8 13 -6 26 6
23 21 23 21 5 21 -8 0 -14 -5 -13 -11z"/>
<path d="M1660 2855 c-6 -8 -9 -23 -5 -35 8 -25 51 -27 64 -2 20 38 -31 71
-59 37z m38 -43 c-15 -7 -38 7 -38 22 0 23 34 24 41 1 3 -11 1 -22 -3 -23z"/>
<path d="M645 2750 c-3 -6 1 -7 9 -4 18 7 21 14 7 14 -6 0 -13 -4 -16 -10z"/>
<path d="M670 2740 c-9 -6 -10 -10 -3 -10 6 0 15 5 18 10 8 12 4 12 -15 0z"/>
<path d="M1757 2729 c-28 -16 -15 -70 18 -69 5 0 2 5 -7 11 -10 5 -18 18 -18
29 0 26 34 19 38 -9 4 -25 22 -18 22 9 0 25 -30 41 -53 29z"/>
<path d="M3765 2679 c-50 -11 -247 -80 -242 -85 1 -2 57 15 122 38 98 33 140
42 225 48 l105 7 -85 0 c-47 1 -103 -3 -125 -8z"/>
<path d="M4035 2665 c75 -17 92 -17 40 0 -22 8 -53 13 -70 13 -19 0 -7 -5 30
-13z"/>
<path d="M1853 2624 c-15 -24 -16 -29 -1 -54 14 -25 14 -28 -4 -39 -21 -13
-21 -53 0 -57 7 -1 8 0 2 3 -18 9 -11 41 11 46 12 3 18 3 15 0 -3 -3 -1 -14 4
-24 7 -11 6 -19 0 -22 -6 -3 -5 -4 2 -3 8 2 12 16 12 35 -2 23 2 31 15 31 24
0 51 31 51 58 0 23 -25 52 -43 51 -8 0 -8 -2 1 -6 6 -2 10 -8 7 -13 -3 -4 0
-19 5 -32 10 -21 10 -21 5 5 -4 19 -2 26 5 22 14 -8 13 -48 -2 -63 -7 -7 -24
-12 -40 -12 -51 0 -62 71 -15 90 17 7 18 9 5 9 -10 1 -25 -11 -35 -25z"/>
<path d="M1680 2595 c-6 -8 -10 -20 -7 -27 4 -8 6 -7 6 5 1 9 5 17 10 17 5 0
16 2 24 5 7 3 14 0 14 -7 0 -7 2 -20 4 -28 3 -11 -4 -15 -23 -15 -14 1 -24 -3
-22 -7 8 -12 38 -10 52 4 17 17 15 55 -4 62 -25 10 -41 7 -54 -9z"/>
<path d="M3400 2560 c-20 -6 -21 -8 -5 -8 11 0 29 3 40 8 25 11 -1 11 -35 0z"/>
<path d="M254 2538 c-4 -7 -3 -8 5 -4 6 4 20 2 29 -6 15 -12 16 -11 3 5 -16
20 -27 22 -37 5z"/>
<path d="M3323 2543 c9 -2 25 -2 35 0 9 3 1 5 -18 5 -19 0 -27 -2 -17 -5z"/>
<path d="M480 2475 c-15 -18 1 -26 23 -10 15 10 15 14 3 18 -8 3 -20 0 -26 -8z"/>
<path d="M225 2400 c10 -11 20 -20 23 -20 3 0 -3 9 -13 20 -10 11 -20 20 -23
20 -3 0 3 -9 13 -20z"/>
<path d="M1816 2384 c-10 -27 -7 -43 13 -54 36 -19 68 11 56 51 -8 24 -60 26
-69 3z m47 -45 c-14 -14 -43 0 -43 21 0 10 8 20 18 22 20 5 40 -28 25 -43z"/>
<path d="M175 2330 c-3 -6 1 -7 9 -4 18 7 21 14 7 14 -6 0 -13 -4 -16 -10z"/>
<path d="M220 2330 c-9 -6 -10 -10 -3 -10 6 0 15 5 18 10 8 12 4 12 -15 0z"/>
<path d="M1560 2220 c-11 -11 -20 -26 -20 -33 0 -21 30 -57 48 -56 13 0 12 2
-4 9 -42 17 -43 87 -1 75 17 -5 19 -4 7 4 -12 9 -10 11 11 11 50 0 68 -56 27
-84 -18 -13 -19 -16 -6 -16 36 0 50 66 20 93 -25 23 -58 21 -82 -3z"/>
<path d="M1891 2201 c-13 -24 8 -55 34 -50 28 6 42 34 26 53 -18 22 -48 20
-60 -3z m56 -7 c3 -8 0 -21 -6 -27 -10 -9 -16 -8 -27 7 -11 16 -11 22 -1 28
18 12 27 10 34 -8z"/>
<path d="M323 2185 c0 -8 4 -12 9 -9 5 3 6 10 3 15 -9 13 -12 11 -12 -6z"/>
<path d="M1762 2163 c5 -26 38 -29 38 -4 0 15 -6 21 -21 21 -14 0 -19 -5 -17
-17z"/>
<path d="M565 1990 c-3 -6 1 -7 9 -4 18 7 21 14 7 14 -6 0 -13 -4 -16 -10z"/>
<path d="M2077 1753 c-18 -18 2 -71 23 -58 8 5 7 12 -6 26 -15 17 -13 24 9 20
4 0 7 4 7 9 0 11 -23 14 -33 3z"/>
<path d="M2131 1742 c11 -17 10 -24 -2 -38 -12 -15 -12 -17 1 -12 19 6 20 60
2 66 -11 3 -11 0 -1 -16z"/>
<path d="M2768 1713 c28 -2 76 -2 105 0 28 2 5 3 -53 3 -58 0 -81 -1 -52 -3z"/>
<path d="M2615 1700 c-42 -11 -1 -11 50 -1 34 7 35 9 10 9 -16 0 -43 -4 -60
-8z"/>
<path d="M2938 1703 c6 -2 18 -2 25 0 6 3 1 5 -13 5 -14 0 -19 -2 -12 -5z"/>
<path d="M2525 1680 c-25 -11 1 -11 35 0 20 6 21 8 5 8 -11 0 -29 -3 -40 -8z"/>
<path d="M2440 1655 c-19 -7 -28 -13 -20 -13 8 0 31 6 50 13 19 7 28 13 20 13
-8 0 -31 -6 -50 -13z"/>
<path d="M2195 1574 c-104 -35 -184 -63 -176 -64 16 0 381 120 381 126 0 7 -7
5 -205 -62z"/>
<path d="M1348 1513 c6 -2 18 -2 25 0 6 3 1 5 -13 5 -14 0 -19 -2 -12 -5z"/>
<path d="M1403 1503 c9 -2 23 -2 30 0 6 3 -1 5 -18 5 -16 0 -22 -2 -12 -5z"/>
<path d="M1968 1503 c6 -2 18 -2 25 0 6 3 1 5 -13 5 -14 0 -19 -2 -12 -5z"/>
<path d="M1468 1493 c12 -2 30 -2 40 0 9 3 -1 5 -23 4 -22 0 -30 -2 -17 -4z"/>
<path d="M1850 1490 l-55 -7 50 0 c28 0 64 3 80 7 26 7 27 8 5 7 -14 0 -50 -3
-80 -7z"/>
<path d="M1628 1483 c6 -2 18 -2 25 0 6 3 1 5 -13 5 -14 0 -19 -2 -12 -5z"/>
<path d="M1708 1473 c12 -2 30 -2 40 0 9 3 -1 5 -23 4 -22 0 -30 -2 -17 -4z"/>
<path d="M2658 1433 c18 -2 45 -2 60 0 15 2 0 4 -33 4 -33 0 -45 -2 -27 -4z"/>
<path d="M2891 1436 c2 -2 33 -6 69 -9 39 -3 55 -2 40 3 -25 8 -117 13 -109 6z"/>
<path d="M2573 1423 c9 -2 25 -2 35 0 9 3 1 5 -18 5 -19 0 -27 -2 -17 -5z"/>
<path d="M2455 1405 c-67 -17 -36 -18 40 -1 33 8 49 14 35 14 -14 0 -47 -6
-75 -13z"/>
<path d="M2378 1383 c7 -3 16 -2 19 1 4 3 -2 6 -13 5 -11 0 -14 -3 -6 -6z"/>
<path d="M2257 1354 c-44 -14 -77 -27 -75 -29 2 -2 44 9 93 25 50 16 83 29 75
29 -8 0 -50 -11 -93 -25z"/>
<path d="M2133 1310 c-34 -14 -28 -21 7 -9 17 6 30 13 30 15 0 6 -12 4 -37 -6z"/>
<path d="M2870 1010 c-11 -11 -20 -33 -20 -50 0 -17 9 -39 20 -50 43 -43 120
-11 120 50 0 38 -32 70 -70 70 -17 0 -39 -9 -50 -20z m92 -7 c22 -20 23 -61 1
-85 -34 -38 -103 -11 -103 40 0 54 62 81 102 45z"/>
<path d="M2960 962 c0 -6 -7 -18 -16 -26 -8 -9 -11 -16 -5 -16 13 0 35 39 27
48 -3 3 -6 0 -6 -6z"/>
<path d="M2490 981 c-16 -31 4 -63 37 -59 34 4 52 32 37 56 -16 26 -60 28 -74
3z m64 -21 c0 -18 -6 -24 -26 -27 -28 -4 -42 15 -32 42 4 10 16 14 32 12 20
-3 26 -9 26 -27z"/>
<path d="M2680 945 c-15 -18 -5 -35 20 -35 23 0 32 13 24 34 -8 20 -28 21 -44
1z m21 -18 c-13 -13 -26 -3 -16 12 3 6 11 8 17 5 6 -4 6 -10 -1 -17z"/>
<path d="M2466 794 c-21 -21 -20 -37 4 -59 41 -37 97 24 58 63 -17 17 -44 15
-62 -4z m61 -29 c2 -22 0 -26 -7 -15 -9 14 -14 7 -11 -13 3 -15 -31 -3 -42 15
-14 22 9 50 37 46 15 -2 21 -11 23 -33z"/>
<path d="M2295 729 c-11 -17 1 -21 15 -4 8 9 8 15 2 15 -6 0 -14 -5 -17 -11z"/>
<path d="M2340 729 c-13 -9 -13 -10 2 -6 24 8 30 -4 13 -29 -11 -17 -12 -24
-2 -27 6 -3 0 -6 -15 -6 -16 -1 -31 6 -37 17 -6 9 -11 12 -11 7 -1 -31 58 -47
78 -22 12 15 10 69 -3 74 -5 1 -17 -2 -25 -8z"/>
<path d="M2510 633 c-29 -11 -50 -37 -50 -62 0 -33 26 -71 48 -70 13 0 11 3
-5 9 -23 9 -37 45 -31 77 2 10 19 26 38 35 33 16 33 23 0 11z"/>
<path d="M2568 614 c33 -23 28 -83 -8 -101 -16 -8 -19 -13 -9 -13 24 0 49 33
49 67 0 28 -25 63 -46 63 -4 0 2 -7 14 -16z"/>
<path d="M2570 570 c0 -7 -8 -22 -17 -32 -15 -17 -15 -18 0 -13 17 7 33 42 23
52 -3 4 -6 0 -6 -7z"/>
<path d="M2392 538 c-19 -19 -14 -56 8 -68 23 -12 54 0 64 25 4 11 2 14 -6 9
-7 -5 -9 -2 -5 8 11 31 -36 51 -61 26z m52 -30 c1 -14 -2 -25 -5 -22 -4 2 -9
-1 -11 -7 -6 -18 -38 2 -38 25 0 29 9 38 34 34 13 -2 20 -11 20 -30z"/>
<path d="M2255 420 c-15 -17 -16 -24 -7 -45 6 -14 16 -25 22 -25 7 0 4 7 -4
16 -19 19 -20 36 -4 52 14 14 52 16 43 2 -3 -6 1 -7 9 -4 20 8 20 -5 1 -30
-17 -23 -9 -42 11 -25 17 14 18 51 2 67 -18 18 -53 14 -73 -8z m66 -53 c-10
-9 -11 -8 -5 6 3 10 9 15 12 12 3 -3 0 -11 -7 -18z"/>
</g>
</svg>
